<?xml version="1.0" encoding="UTF-8" standalone="no"?>
<svg
   version="1.2"
   viewBox="0 0 1000 1000"
   width="1000"
   height="1000"
   id="svg1"
   xmlns="http://www.w3.org/2000/svg"
   xmlns:svg="http://www.w3.org/2000/svg">
  <defs
     id="defs1" />
  <style
     id="style1">
		.s0 { fill: #808080 } 
		.s1 { fill: #232323 } 
	</style>
  <path
     id="Layer copy"
     class="s0"
     d="m 605.25111,633.60037 h -231.13 v -231.15 L 0,402.42589 V 1000 h 605.26284 z" />
  <path
     class="s1"
     d="m 374.12111,402.45037 v 231.15 h 231.13 L 605.26284,1000 H 1000 V 0 H 443.18325 0 v 402.42589 z"
     id="path1" />
  <path
     id="Shape 1"
     fill-rule="evenodd"
     class="s0"
     d="m 767.37889,557.74333 c -31.92,0 -57.73,-25.8 -57.73,-57.73 0,-31.92 25.81,-57.73 57.73,-57.73 31.93,0 57.74,25.81 57.74,57.73 0,31.93 -25.81,57.73 -57.74,57.73 z" />
  <path
     id="j"
     class="s0"
     d="m 684.58889,557.12333 0.88,-113.35 -52.56,-0.43 -1.45,22.18 c -0.71,12.02 -4.56,15.79 -18.47,15.69 l -69.93,-0.55 c -41.78,-0.33 -55.61,-13.74 -55.43,-37.8 0.15,-16.47 5.33,-31.63 13.67,-46.77 l -52.37,-23.18 c -14.12,22.03 -22.59,54.91 -22.79,80.86 -0.73,89.9 58.72,101.77 119.5,102.25 z" />
</svg>
