<?xml version="1.0" encoding="UTF-8" standalone="no"?>
<svg
   version="1.2"
   viewBox="0 0 1000 1000"
   width="1000"
   height="1000"
   id="svg1"
   xmlns="http://www.w3.org/2000/svg"
   xmlns:svg="http://www.w3.org/2000/svg">
  <defs
     id="defs1" />
  <style
     id="style1">
		.s0 { fill: #808080 } 
		.s1 { fill: #232323 } 
	</style>
  <path
     id="Layer copy"
     class="s0"
     d="M 587.89,638.23 H 356.76 V 407.08 H 125.64 c 0,0 -16.3,20 -20.42,29.92 -4.11,9.9 -6.21,20.53 -6.21,31.28 0,10.71 2.1,21.34 6.21,31.26 4.12,9.9 10.13,18.91 17.7,26.51 l 346.71,346.69 c 7.58,7.58 16.59,13.61 26.52,17.7 9.9,4.11 20.53,6.24 31.26,6.24 10.72,0 21.35,-2.13 31.27,-6.24 9.9,-4.09 29.21,-21.09 29.21,-21.09 z" />
  <path
     class="s1"
     d="m 356.76,407.08 v 231.15 h 231.13 c -0.3263,24.52638 -0.3161,211.64796 0,231.12 L 904.05,553.21 c 7.57,-7.61 13.59,-16.61 17.7,-26.53 4.11,-9.91 6.21,-20.53 6.21,-31.28 0,-10.71 -2.1,-21.34 -6.21,-31.26 -4.11,-9.9 -10.13,-18.91 -17.7,-26.51 L 557.34,90.94 C 549.76,83.36 540.75,77.33 530.83,73.24 520.92,69.13 510.29,67 499.56,67 c -10.72,0 -21.35,2.13 -31.27,6.24 -9.9,4.09 -18.93,10.12 -26.51,17.7 L 125.64,407.08 Z"
     id="path1" />
  <path
     id="Shape 1"
     fill-rule="evenodd"
     class="s0"
     d="m 753.49,536.91 c -31.92,0 -57.73,-25.8 -57.73,-57.73 0,-31.92 25.81,-57.73 57.73,-57.73 31.93,0 57.74,25.81 57.74,57.73 0,31.93 -25.81,57.73 -57.74,57.73 z" />
  <path
     id="j"
     class="s0"
     d="m 670.7,536.29 0.88,-113.35 -52.56,-0.43 -1.45,22.18 c -0.71,12.02 -4.56,15.79 -18.47,15.69 l -69.93,-0.55 c -41.78,-0.33 -55.61,-13.74 -55.43,-37.8 0.15,-16.47 5.33,-31.63 13.67,-46.77 l -52.37,-23.18 c -14.12,22.03 -22.59,54.91 -22.79,80.86 -0.73,89.9 58.72,101.77 119.5,102.25 z" />
</svg>
