<svg version="1.2" xmlns="http://www.w3.org/2000/svg" viewBox="0 0 1000 1000" width="1000" height="1000">
	<style>
		.s0 { fill: #808080 } 
		.s1 { fill: #232323 } 
	</style>
	<path id="Layer copy" class="s0" d="m590 636h-231v-232h-229l-5 3.5c-7.57 7.61-13.42 16.5-17.54 26.42-4.11 9.9-6.21 20.53-6.21 31.28 0 10.71 2.1 21.34 6.21 31.26 4.12 9.9 10.13 18.91 17.7 26.51l346.71 346.69c7.58 7.58 16.59 13.61 26.52 17.7 9.9 4.11 20.53 6.24 31.26 6.24 10.72 0 21.35-2.13 31.27-6.24 9.9-4.09 18.93-10.12 26.52-17.7l2.56-9.66z"/>
	<path class="s1" d="m356.76 407.08v231.15h231.13v231.12l316.16-316.14c7.57-7.61 13.59-16.61 17.7-26.53 4.11-9.91 6.21-20.53 6.21-31.28 0-10.71-2.1-21.34-6.21-31.26-4.11-9.9-10.13-18.91-17.7-26.51l-346.71-346.69c-7.58-7.58-16.59-13.61-26.51-17.7-9.91-4.11-20.54-6.24-31.27-6.24-10.72 0-21.35 2.13-31.27 6.24-9.9 4.09-18.93 10.12-26.51 17.7l-316.14 316.14z"/>
	<path id="Shape 1" fill-rule="evenodd" class="s0" d="m753.49 536.91c-31.92 0-57.73-25.8-57.73-57.73 0-31.92 25.81-57.73 57.73-57.73 31.93 0 57.74 25.81 57.74 57.73 0 31.93-25.81 57.73-57.74 57.73z"/>
	<path id="j" class="s0" d="m670.7 536.29l0.88-113.35-52.56-0.43-1.45 22.18c-0.71 12.02-4.56 15.79-18.47 15.69l-69.93-0.55c-41.78-0.33-55.61-13.74-55.43-37.8 0.15-16.47 5.33-31.63 13.67-46.77l-52.37-23.18c-14.12 22.03-22.59 54.91-22.79 80.86-0.73 89.9 58.72 101.77 119.5 102.25z"/>
</svg>