<svg version="1.2" xmlns="http://www.w3.org/2000/svg" viewBox="0 0 1000 1000" width="1000" height="1000">
	<style>
		.s0 { fill: #ffffff } 
	</style>
	<path id="Layer copy" class="s0" d="m605.25 633.6h-231.13v-231.15l-374.12-0.02v597.57h605.26z"/>
	<path id="Shape 1" fill-rule="evenodd" class="s0" d="m767.38 557.74c-31.92 0-57.73-25.8-57.73-57.73 0-31.92 25.81-57.73 57.73-57.73 31.93 0 57.74 25.81 57.74 57.73 0 31.93-25.81 57.73-57.74 57.73z"/>
	<path id="j" class="s0" d="m684.59 557.12l0.88-113.35-52.56-0.43-1.45 22.18c-0.71 12.02-4.56 15.79-18.47 15.69l-69.93-0.55c-41.78-0.33-55.61-13.74-55.43-37.8 0.15-16.47 5.33-31.63 13.67-46.77l-52.37-23.18c-14.12 22.03-22.59 54.91-22.79 80.86-0.73 89.9 58.72 101.77 119.5 102.25z"/>
</svg>