<?xml version="1.0" encoding="UTF-8" standalone="no"?>
<svg
   version="1.2"
   viewBox="0 0 862.51483 863.24481"
   width="862.51483"
   height="863.24481"
   id="svg1"
   sodipodi:docname="dejpeg_logo_curved.svg"
   inkscape:export-filename="dejpeg_logo_curved.png"
   inkscape:export-xdpi="96"
   inkscape:export-ydpi="96"
   inkscape:version="1.4.3 (0d15f75042, 2025-12-25)"
   xmlns:inkscape="http://www.inkscape.org/namespaces/inkscape"
   xmlns:sodipodi="http://sodipodi.sourceforge.net/DTD/sodipodi-0.dtd"
   xmlns="http://www.w3.org/2000/svg"
   xmlns:svg="http://www.w3.org/2000/svg">
  <sodipodi:namedview
     id="namedview1"
     pagecolor="#505050"
     bordercolor="#eeeeee"
     borderopacity="1"
     inkscape:showpageshadow="0"
     inkscape:pageopacity="0"
     inkscape:pagecheckerboard="0"
     inkscape:deskcolor="#505050"
     inkscape:zoom="1.0008748"
     inkscape:cx="431.12284"
     inkscape:cy="431.62241"
     inkscape:window-width="1920"
     inkscape:window-height="1115"
     inkscape:window-x="0"
     inkscape:window-y="0"
     inkscape:window-maximized="1"
     inkscape:current-layer="svg1" />
  <defs
     id="defs1" />
  <style
     id="style1">
		.s0 { fill: #808080 } 
		.s1 { fill: #232323 } 
	</style>
  <path
     id="Layer copy"
     class="s0"
     d="m 522.44481,571.23 h -231.13 V 340.08 H 60.194813 c 0,0 -49.864814,53.56481 -53.9848144,63.48481 -4.11,9.9 -6.2100000503797,20.53 -6.2100000503797,31.28 0,10.71 2.1000000503797,21.34 6.2100000503797,31.26 4.1200004,9.9 10.1300004,18.91 17.7000044,26.51 L 370.62,839.30481 c 7.58,7.58 16.59,13.61 26.52,17.7 9.9,4.11 20.53,6.24 31.26,6.24 10.72,0 21.35,-2.13 31.27,-6.24 9.9,-4.09 62.77481,-54.65481 62.77481,-54.65481 z"
     inkscape:label="hill" />
  <path
     class="s1"
     d="m 291.31481,340.08 v 231.15 h 231.13 v 231.12 l 316.16,-316.14 c 7.57,-7.61 13.59,-16.61 17.7,-26.53 4.11,-9.91 6.21,-20.53 6.21,-31.28 0,-10.71 -2.1,-21.34 -6.21,-31.26 -4.11,-9.9 -10.13,-18.91 -17.7,-26.51 l -346.71,-346.689999 c -7.58,-7.58 -16.59,-13.61 -26.51,-17.7000001 -9.91,-4.11 -20.54,-6.24000000286781 -31.27,-6.24000000286781 -10.72,0 -21.35,2.13000000286781 -31.27,6.24000000286781 -9.9,4.0900001 -18.93,10.1200001 -26.51,17.7000001 L 60.194813,340.08 Z"
     id="path1"
     inkscape:label="bg" />
  <g
     id="g1"
     transform="translate(-82.806297,-62.370369)"
     inkscape:label="letters">
    <path
       id="Shape 1"
       fill-rule="evenodd"
       class="s0"
       d="m 728.83416,586.48965 c -30.36908,0 -54.92503,-24.54643 -54.92503,-54.92503 0,-30.36907 24.55595,-54.92502 54.92503,-54.92502 30.37859,0 54.93454,24.55595 54.93454,54.92502 0,30.3786 -24.55595,54.92503 -54.93454,54.92503 z"
       style="stroke-width:0.95141"
       inkscape:label="dot" />
    <path
       id="j"
       class="s0"
       d="m 656.81343,580.8353 0.82117,-105.77238 -49.04628,-0.40125 -1.35307,20.69723 C 606.57272,506.57535 602.98009,510.09332 590,510 l -65.25507,-0.51323 c -38.98695,-0.30794 -51.89239,-12.82146 -51.72442,-35.27301 0.13997,-15.36896 4.97368,-29.51549 12.75614,-43.64336 l -48.86899,-21.63038 c -13.17606,20.55726 -21.07983,51.23918 -21.26645,75.45439 -0.6812,83.89004 54.79447,94.96652 111.51124,95.41443 z"
       style="display:inline;stroke-width:0.933149"
       inkscape:label="letter j" />
  </g>
</svg>
